# xmcd
#
# Track frame offsets:
#	200
#	12485
#	28382
#	42925
#	62845
#	76950
#	91272
#	107245
#	121245
#	138297
#	152742
#	170590
#	185510
#	203420
#
# Disc length: 2988 seconds
#
# Revision: 2
# Processed by: cddbd v1.5.2PL0 Copyright (c) Steve Scherf et al.
# Submitted via: EasyCDDAExtractor 12.0.1.1
#
DISCID=b80baa0e
DTITLE=Various Artist - Crea Goldies Vol 2
DYEAR=1991
DGENRE=Dance
TTITLE0=Della Reese - CC 31 - Daddy
TTITLE1=Original Cast - EW 27 - You Light Up My Life
TTITLE2=The Tymes - JV 30 - Mrs Grace
TTITLE3=Culture Club - FX 52 - Do You Really Want To Hurt Me
TTITLE4=Middle Of The Road - SB 58 - Samba D'Amour
TTITLE5=Fun Boy Three - TG 31 - Tunnel Of Love
TTITLE6=Roy Orbison - RB 30 - You Got It
TTITLE7=The Hues Corporation - SB 56 - Rock The Boat
TTITLE8=Mike Oldfield - CC 32 - Moonlight Shadow
TTITLE9=Maxine Nightingale - JV 39 - Right Back Where We Started From
TTITLE10=T'Pau - BL 25 - Heart And Soul
TTITLE11=Viola Wills - DF 32 - Gonna Get Along Without You Now
TTITLE12=Boney M - EW 32 - I'm Born Again
TTITLE13=Taco - FX 52 - Puttin On The Ritz
EXTD=YEAR: 1991 ID3G: 3
EXTT0=
EXTT1=
EXTT2=
EXTT3=
EXTT4=
EXTT5=
EXTT6=
EXTT7=
EXTT8=
EXTT9=
EXTT10=
EXTT11=
EXTT12=
EXTT13=
PLAYORDER=
